<svg width="83" height="83" viewBox="0 0 83 83" version="1.1" xmlns="http://www.w3.org/2000/svg" xmlns:xlink="http://www.w3.org/1999/xlink">
<title>location permission</title>
<desc>Created using Figma</desc>
<g id="Canvas" transform="translate(352 164)">
<g id="location permission" filter="url(#filter0_d)">
<g id="treatment">
<use xlink:href="#path0_fill" transform="translate(-348 -164)" fill="#494E55"/>
<mask id="mask0_outline_ins">
<use xlink:href="#path0_fill" fill="white" transform="translate(-348 -164)"/>
</mask>
<g mask="url(#mask0_outline_ins)">
<use xlink:href="#path1_stroke_2x" transform="translate(-348 -164)" fill="#27282C"/>
</g>
</g>
<g id="mark">
<use xlink:href="#path2_fill" transform="translate(-337.655 -145.897)" fill="#27282C"/>
<use xlink:href="#path3_stroke" transform="translate(-337.655 -145.897)" fill="#DBC1A8"/>
</g>
</g>
</g>
<defs>
<filter id="filter0_d" filterUnits="userSpaceOnUse" x="-352" y="-164" width="83" height="83" color-interpolation-filters="sRGB">
<feFlood flood-opacity="0" result="BackgroundImageFix"/>
<feColorMatrix in="SourceAlpha" type="matrix" values="0 0 0 0 0 0 0 0 0 0 0 0 0 0 0 0 0 0 255 0"/>
<feOffset dx="0" dy="4"/>
<feGaussianBlur stdDeviation="2"/>
<feColorMatrix type="matrix" values="0 0 0 0 0 0 0 0 0 0 0 0 0 0 0 0 0 0 0.25 0"/>
<feBlend mode="normal" in2="BackgroundImageFix" result="effect1_dropShadow"/>
<feBlend mode="normal" in="SourceGraphic" in2="effect1_dropShadow" result="shape"/>
</filter>
<path id="path0_fill" d="M 75 37.5C 75 58.2107 58.2107 75 37.5 75C 16.7893 75 0 58.2107 0 37.5C 0 16.7893 16.7893 0 37.5 0C 58.2107 0 75 16.7893 75 37.5Z"/>
<path id="path1_stroke_2x" d="M 73 37.5C 73 57.1061 57.1061 73 37.5 73L 37.5 77C 59.3152 77 77 59.3152 77 37.5L 73 37.5ZM 37.5 73C 17.8939 73 2 57.1061 2 37.5L -2 37.5C -2 59.3152 15.6848 77 37.5 77L 37.5 73ZM 2 37.5C 2 17.8939 17.8939 2 37.5 2L 37.5 -2C 15.6848 -2 -2 15.6848 -2 37.5L 2 37.5ZM 37.5 2C 57.1061 2 73 17.8939 73 37.5L 77 37.5C 77 15.6848 59.3152 -2 37.5 -2L 37.5 2Z"/>
<path id="path2_fill" d="M 45.9052 0L 0 18.75L 21.9828 23.9224L 28.4483 45.9052L 45.9052 0Z"/>
<path id="path3_stroke" d="M 0 18.75L -0.378125 17.8242L -3.27383 19.007L -0.229039 19.7234L 0 18.75ZM 45.9052 0L 46.8399 0.355448L 47.6581 -1.79618L 45.527 -0.925755L 45.9052 0ZM 28.4483 45.9052L 27.4889 46.1873L 28.3271 49.0372L 29.383 46.2606L 28.4483 45.9052ZM 21.9828 23.9224L 22.9421 23.6402L 22.778 23.0822L 22.2118 22.949L 21.9828 23.9224ZM 0.378125 19.6758L 46.2833 0.925755L 45.527 -0.925755L -0.378125 17.8242L 0.378125 19.6758ZM 44.9705 -0.355448L 27.5136 45.5497L 29.383 46.2606L 46.8399 0.355448L 44.9705 -0.355448ZM 29.4076 45.623L 22.9421 23.6402L 21.0234 24.2046L 27.4889 46.1873L 29.4076 45.623ZM 22.2118 22.949L 0.229039 17.7766L -0.229039 19.7234L 21.7537 24.8958L 22.2118 22.949Z"/>
</defs>
</svg>
