<svg width="163" height="99" viewBox="0 0 163 99" version="1.1" xmlns="http://www.w3.org/2000/svg" xmlns:xlink="http://www.w3.org/1999/xlink">
<title>Landing Logo</title>
<desc>Created using Figma</desc>
<g id="Canvas" transform="translate(390 540)">
<g id="Landing Logo">
<g id="Group">
<g id="Vector (Stroke)">
<use xlink:href="#path0_fill" transform="translate(-390 -540)" fill="#27282C"/>
</g>
<g id="Vector (Stroke)">
<use xlink:href="#path1_fill" transform="translate(-362.937 -516.753)" fill="#27282C"/>
</g>
<g id="WILD">
<use xlink:href="#path2_fill" transform="translate(-320.411 -524.503)" fill="#27282C"/>
<use xlink:href="#path3_fill" transform="translate(-320.411 -524.503)" fill="#27282C"/>
<use xlink:href="#path4_fill" transform="translate(-320.411 -524.503)" fill="#27282C"/>
<use xlink:href="#path5_fill" transform="translate(-320.411 -524.503)" fill="#27282C"/>
</g>
<g id="NOTES">
<use xlink:href="#path6_fill" transform="translate(-318.81 -495.753)" fill="#27282C"/>
<use xlink:href="#path7_fill" transform="translate(-318.81 -495.753)" fill="#27282C"/>
<use xlink:href="#path8_fill" transform="translate(-318.81 -495.753)" fill="#27282C"/>
<use xlink:href="#path9_fill" transform="translate(-318.81 -495.753)" fill="#27282C"/>
<use xlink:href="#path10_fill" transform="translate(-318.81 -495.753)" fill="#27282C"/>
</g>
</g>
</g>
</g>
<defs>
<path id="path0_fill" fill-rule="evenodd" d="M 5.05857 46.1429L 5.05857 0L 0 0L 0 66.0012L 27.5579 15.4096L 54.8855 66.0902L 54.8855 0L 49.8269 0L 49.8269 46.0538L 27.5805 4.79651L 5.05857 46.1429Z"/>
<path id="path1_fill" fill-rule="evenodd" d="M 0 0L 30.8573 56.072L 30.8573 2.76828L 35.9159 2.76828L 35.9159 75.7529L 5.05857 19.6809L 5.05857 65.9124L 0 65.9124L 0 0Z"/>
<path id="path2_fill" d="M 6.25406 14.755L 6.66902 17.5965L 7.27664 15.0362L 11.5448 0L 13.9457 0L 18.1101 15.0362L 18.7029 17.6409L 19.1623 14.7402L 22.5116 0L 25.3719 0L 20.1404 21.5479L 17.5469 21.5479L 13.1009 5.84577L 12.7601 4.20303L 12.4192 5.84577L 7.81016 21.5479L 5.21665 21.5479L 0 0L 2.84545 0L 6.25406 14.755Z"/>
<path id="path3_fill" d="M 31.5963 21.5479L 28.7509 21.5479L 28.7509 0L 31.5963 0L 31.5963 21.5479Z"/>
<path id="path4_fill" d="M 39.6732 19.2244L 49.8991 19.2244L 49.8991 21.5479L 36.813 21.5479L 36.813 0L 39.6732 0L 39.6732 19.2244Z"/>
<path id="path5_fill" d="M 53.1446 21.5479L 53.1446 0L 59.2357 0C 61.1129 0 62.7727 0.414384 64.2152 1.24315C 65.6577 2.07192 66.7692 3.25094 67.5497 4.78021C 68.3401 6.30948 68.7403 8.06568 68.7501 10.0488L 68.7501 11.4251C 68.7501 13.4576 68.3549 15.2385 67.5645 16.7677C 66.784 18.297 65.6626 19.4711 64.2004 20.29C 62.748 21.1089 61.0536 21.5282 59.1171 21.5479L 53.1446 21.5479ZM 55.9901 2.33831L 55.9901 19.2244L 58.9837 19.2244C 61.1771 19.2244 62.8814 18.5437 64.0967 17.1821C 65.3218 15.8206 65.9343 13.8819 65.9343 11.3659L 65.9343 10.108C 65.9343 7.66116 65.3564 5.76191 64.2004 4.41023C 63.0543 3.04868 61.4241 2.35804 59.3098 2.33831L 55.9901 2.33831Z"/>
<path id="path6_fill" d="M 16.5836 21.8439L 13.7234 21.8439L 2.86027 5.23899L 2.86027 21.8439L 0 21.8439L 0 0.295988L 2.86027 0.295988L 13.753 16.9749L 13.753 0.295988L 16.5836 0.295988L 16.5836 21.8439Z"/>
<path id="path7_fill" d="M 38.2357 11.7655C 38.2357 13.8769 37.88 15.7219 37.1687 17.3005C 36.4573 18.8693 35.4495 20.068 34.1454 20.8968C 32.8412 21.7255 31.3197 22.1399 29.5808 22.1399C 27.8814 22.1399 26.3747 21.7255 25.0607 20.8968C 23.7466 20.0581 22.7241 18.8693 21.9929 17.3301C 21.2717 15.7811 20.9012 13.9904 20.8814 11.9579L 20.8814 10.404C 20.8814 8.33207 21.2421 6.50188 21.9633 4.91341C 22.6845 3.32494 23.7022 2.11138 25.0162 1.27275C 26.3401 0.42425 27.8518 0 29.5512 0C 31.2802 0 32.8017 0.419317 34.1157 1.25795C 35.4396 2.08672 36.4573 3.29534 37.1687 4.88381C 37.88 6.46241 38.2357 8.30247 38.2357 10.404L 38.2357 11.7655ZM 35.4051 10.3744C 35.4051 7.81902 34.8913 5.86057 33.8638 4.49902C 32.8363 3.12761 31.3987 2.4419 29.5512 2.4419C 27.753 2.4419 26.3352 3.12761 25.2978 4.49902C 24.2703 5.86057 23.7417 7.75489 23.7121 10.182L 23.7121 11.7655C 23.7121 14.242 24.2308 16.1906 25.2682 17.6113C 26.3154 19.0222 27.753 19.7276 29.5808 19.7276C 31.4185 19.7276 32.8412 19.0616 33.849 17.7297C 34.8567 16.3879 35.3754 14.4689 35.4051 11.9727L 35.4051 10.3744Z"/>
<path id="path8_fill" d="M 56.9979 2.6343L 50.0621 2.6343L 50.0621 21.8439L 47.2315 21.8439L 47.2315 2.6343L 40.3105 2.6343L 40.3105 0.295988L 56.9979 0.295988L 56.9979 2.6343Z"/>
<path id="path9_fill" d="M 72.3959 11.8839L 63.0444 11.8839L 63.0444 19.5204L 73.9075 19.5204L 73.9075 21.8439L 60.199 21.8439L 60.199 0.295988L 73.7593 0.295988L 73.7593 2.6343L 63.0444 2.6343L 63.0444 9.56042L 72.3959 9.56042L 72.3959 11.8839Z"/>
<path id="path10_fill" d="M 83.8073 12.2391C 81.3669 11.5386 79.5885 10.6802 78.4721 9.66402C 77.3655 8.63793 76.8122 7.37504 76.8122 5.87537C 76.8122 4.17837 77.489 2.77736 78.8426 1.67233C 80.206 0.557445 81.9746 0 84.1482 0C 85.6302 0 86.9492 0.286122 88.1051 0.858366C 89.271 1.43061 90.17 2.21991 90.8024 3.22627C 91.4446 4.23263 91.7657 5.33272 91.7657 6.52654L 88.9054 6.52654C 88.9054 5.22419 88.4904 4.20303 87.6605 3.46306C 86.8306 2.71323 85.6598 2.33831 84.1482 2.33831C 82.7452 2.33831 81.6485 2.6491 80.8581 3.27067C 80.0776 3.88238 79.6873 4.73581 79.6873 5.83097C 79.6873 6.70907 80.0578 7.45397 80.7988 8.06568C 81.5497 8.66752 82.8193 9.22004 84.6076 9.72322C 86.4057 10.2264 87.8087 10.7838 88.8165 11.3955C 89.8341 11.9974 90.585 12.7028 91.0691 13.5119C 91.5631 14.3209 91.8101 15.273 91.8101 16.3682C 91.8101 18.1145 91.1284 19.5155 89.765 20.5712C 88.4015 21.617 86.5787 22.1399 84.2964 22.1399C 82.8144 22.1399 81.4312 21.8587 80.1468 21.2964C 78.8624 20.7241 77.8694 19.9447 77.1679 18.9581C 76.4763 17.9714 76.1305 16.8516 76.1305 15.5986L 78.9908 15.5986C 78.9908 16.9009 79.47 17.932 80.4283 18.6917C 81.3966 19.4415 82.6859 19.8164 84.2964 19.8164C 85.7981 19.8164 86.9492 19.5106 87.7494 18.8989C 88.5497 18.2871 88.9499 17.4534 88.9499 16.3978C 88.9499 15.3421 88.5794 14.5281 87.8384 13.9558C 87.0974 13.3737 85.7537 12.8015 83.8073 12.2391Z"/>
</defs>
</svg>
